<?xml version="1.0" standalone="no"?>
<!DOCTYPE svg PUBLIC "-//W3C//DTD SVG 20010904//EN"
 "http://www.w3.org/TR/2001/REC-SVG-20010904/DTD/svg10.dtd">
<svg version="1.0" xmlns="http://www.w3.org/2000/svg"
 width="512.000000pt" height="512.000000pt" viewBox="0 0 512.000000 512.000000"
 preserveAspectRatio="xMidYMid meet">
<metadata>
Created by potrace 1.14, written by Peter Selinger 2001-2017
</metadata>
<g transform="translate(0.000000,512.000000) scale(0.100000,-0.100000)"
fill="#000000" stroke="none">
<path d="M0 2560 l0 -2560 2560 0 2560 0 0 2560 0 2560 -2560 0 -2560 0 0
-2560z m2150 1780 l0 -200 150 0 150 0 0 200 0 200 145 0 145 0 0 -203 0 -202
87 -18 c320 -66 560 -279 634 -562 28 -106 30 -290 6 -390 -36 -145 -127 -289
-245 -388 -65 -55 -129 -90 -222 -122 l-65 -22 50 -8 c28 -4 88 -21 135 -37
232 -81 347 -177 444 -369 73 -146 91 -233 83 -404 -13 -275 -119 -475 -337
-636 -112 -83 -316 -153 -507 -174 l-63 -7 0 -199 0 -199 -145 0 -145 0 0 195
0 195 -150 0 -150 0 0 -195 0 -195 -145 0 -145 0 0 195 0 195 -200 0 -200 0 0
1575 0 1575 200 0 200 0 0 193 c0 107 3 197 7 200 3 4 69 7 145 7 l138 0 0
-200z"/>
<path d="M1880 3274 l0 -496 348 4 c318 4 354 6 426 26 130 36 215 83 281 154
94 101 133 222 122 377 -16 241 -165 382 -442 421 -38 5 -220 10 -402 10
l-333 0 0 -496z"/>
<path d="M1880 1885 l0 -517 428 4 c400 4 432 6 507 26 241 66 367 196 396
408 30 227 -63 414 -251 508 -142 70 -210 78 -672 83 l-408 5 0 -517z"/>
</g>
</svg>
