<?xml version="1.0" standalone="no"?>
<!DOCTYPE svg PUBLIC "-//W3C//DTD SVG 20010904//EN"
 "http://www.w3.org/TR/2001/REC-SVG-20010904/DTD/svg10.dtd">
<svg version="1.0" xmlns="http://www.w3.org/2000/svg"
 width="512.000000pt" height="512.000000pt" viewBox="0 0 512.000000 512.000000"
 preserveAspectRatio="xMidYMid meet">
<metadata>
Created by potrace 1.14, written by Peter Selinger 2001-2017
</metadata>
<g transform="translate(0.000000,512.000000) scale(0.100000,-0.100000)"
fill="#000000" stroke="none">
<path d="M0 2560 l0 -2560 2560 0 2560 0 0 2560 0 2560 -2560 0 -2560 0 0
-2560z m2140 1775 l0 -195 160 0 160 0 0 195 0 195 135 0 135 0 0 -200 c0
-199 0 -200 23 -204 247 -49 400 -126 535 -271 76 -82 140 -197 170 -305 27
-100 24 -322 -6 -415 -33 -104 -95 -207 -174 -290 -87 -93 -159 -141 -262
-176 -45 -16 -82 -33 -84 -38 -2 -5 21 -12 50 -16 189 -26 387 -132 497 -268
52 -63 115 -191 138 -277 25 -93 24 -317 0 -425 -23 -96 -84 -231 -133 -294
-142 -179 -391 -306 -659 -336 -105 -12 -95 10 -95 -216 l0 -199 -135 0 -135
0 -2 198 -3 197 -155 0 -155 0 -3 -197 -2 -198 -135 0 -135 0 0 200 0 200
-200 0 -200 0 0 1570 0 1570 200 0 200 0 0 195 0 195 135 0 135 0 0 -195z"/>
<path d="M1875 3768 c-3 -7 -4 -233 -3 -503 l3 -490 335 0 c312 1 341 2 423
23 219 55 343 152 407 317 31 80 35 262 7 343 -52 149 -173 252 -350 299 -85
22 -814 32 -822 11z"/>
<path d="M1875 2398 c-3 -7 -4 -242 -3 -523 l3 -510 425 0 c407 1 428 2 507
23 105 29 160 52 231 101 121 82 182 213 182 393 0 213 -83 353 -263 439 -153
73 -215 81 -674 86 -332 4 -404 3 -408 -9z"/>
</g>
</svg>
